<?xml version="1.0" encoding="UTF-8"?>
<svg id="Layer_1" xmlns="http://www.w3.org/2000/svg" viewBox="0 0 1701.87 1701.83">
  <defs>
    <style>
      .cls-1 {
        fill: #c89128;
      }

      .cls-2 {
        font-family: FuturaPT-Book, 'Futura PT';
        font-size: 453.18px;
        letter-spacing: .3em;
      }

      .cls-2, .cls-3 {
        fill: #0f172a;
      }

      .cls-4 {
        fill: #3376bd;
      }
    </style>
  </defs>
  <path class="cls-1" d="M1073.44,524.6h34.16c0-9.21,0-18.4-.01-27.61h-99.37v-18.25h99.37v-27.62h-171.81c-19.65,0-36.75,10.29-45.82,25.51,3.23-24.68,24.28-43.76,49.85-43.76h167.78c-.02-68.84-.05-137.7-.05-206.55v-18.69h-217.98v22.2c0,165.01.12,330.01-.06,495.03-.24,231.3-243.56,375.88-447.12,265.81-109.97-59.45-171.64-181.99-154.46-306.89,17.06-123.95,111.99-226.78,234.55-253.07,21.37-4.59,43.36-6.31,64.87-9.33v-216.07c-21.28,1.57-41.49,2.23-61.49,4.66-239.41,29.01-425.33,215.44-454.64,455.59-40.8,334.21,252.18,622.37,585.38,575.73,260.55-36.47,450.68-254.83,450.94-518.21v-3.47h-34.08v-18.23h34.1c.02-8.47.02-16.93.02-25.4h-171.78c-19.65,0-36.75,10.29-45.82,25.51,3.23-24.68,24.28-43.76,49.85-43.76h167.76c.02-8.47.02-16.92.02-25.39h-99.37v-18.25h99.37c.01-8.47.01-16.93.01-25.4h-171.82c-19.65,0-36.75,10.29-45.82,25.52,3.23-24.69,24.28-43.76,49.85-43.76h167.79v-27.62h-34.16v-18.25ZM939.81,701.39h115.37v18.23h-119.4c-19.65,0-36.75,10.29-45.82,25.52,3.23-24.69,24.28-43.76,49.85-43.76ZM939.81,614.11h50.15v18.25h-54.18c-19.65,0-36.75,10.28-45.82,25.51,3.23-24.68,24.28-43.76,49.85-43.76ZM939.81,478.75h50.15v18.25h-54.18c-19.65,0-36.75,10.28-45.82,25.49,3.23-24.68,24.28-43.74,49.85-43.74ZM1055.18,542.85h-119.4c-19.65,0-36.75,10.28-45.82,25.51,3.23-24.68,24.28-43.76,49.85-43.76h115.37v18.25Z"/>
  <g>
    <path class="cls-3" d="M1671.03,430.05c-4.93-22.64-25.05-39.61-49.15-39.61h-168.36c-.02-9.21-.02-18.41-.02-27.62h34.72v-18.25h-34.74c-.02-37.69-.04-75.36-.04-113.05v-24.3h217.16s-.05,10.94-.05,10.94c-.02,55.14.17,110.27.35,165.43-5.13-22.34-25.11-39.02-49.02-39.02h-115.4v18.25h119.42c19.08,0,35.75,9.67,45,24.13.04,14.37.09,28.74.13,43.1Z"/>
    <path class="cls-3" d="M1671.18,522.61c-4.63-23.04-24.91-40.4-49.31-40.4h-168.31v-27.62h80.49v-18.26h-80.51v-27.64h172.35c19.17,0,35.9,9.78,45.13,24.35.04,14.46.09,28.93.09,43.39-4.74-22.88-24.96-40.09-49.24-40.09h-69.57v18.26h73.59c19.24,0,36.03,9.83,45.24,24.52v.02c.02,14.5.04,28.98.04,43.48Z"/>
    <path class="cls-3" d="M1496.06,700.55v18.25h129.84c18.36,0,34.48,8.97,43.93,22.53v.02c-.02,1.03-.02,2.03-.04,3.06-3.71,244.72-195.45,459.47-437.79,494.74-8.58,1.27-17.18,2.47-30.92,4.43,7.21-6.73,10.9-10.42,14.83-13.78,157.79-135.06,236.79-306.6,237.44-513.98,0-2.53.02-5.07.02-7.6v10.57h24.43v-18.25h-24.41c.02-8.47.04-16.92.07-25.4h172.44c18.71,0,35.13,9.3,44.48,23.32-.13,12.49-.28,24.98-.48,37.47-6.35-20.5-25.42-35.4-48.02-35.4h-125.82Z"/>
    <path class="cls-3" d="M1580.82,613.21v18.28h45.07c18.98,0,35.59,9.56,44.87,23.93-.09,12.88-.2,25.74-.35,38.63-5.79-21.4-25.31-37.16-48.54-37.16h-168.38c0-8.45.02-16.92.04-25.4h109.01v-18.28h-109.01c.02-8.45.02-16.92.02-25.4h172.33c19.17,0,35.9,9.76,45.13,24.35-.07,13.23-.13,26.47-.24,39.7-5.28-22.14-25.16-38.65-48.91-38.65h-41.05Z"/>
    <path class="cls-3" d="M1496.06,525.88v18.25h129.84c19.26,0,36.05,9.85,45.24,24.54-.02,13.52-.04,27.01-.11,40.53-4.91-22.67-25.02-39.65-49.15-39.65h-168.31c.02-8.47.02-16.94.02-25.42h24.22v-18.25h-24.22v-25.42h172.31c19.28,0,36.1,9.87,45.29,24.61.02,13.69,0,27.34-.04,41.01-4.69-22.95-24.94-40.2-49.26-40.2h-125.82Z"/>
  </g>
  <path d="M1168.12,585.15s-.02.02,0,.04c0-.02-.02-.02-.02-.02l.02-.02Z"/>
  <g>
    <path class="cls-3" d="M1308.76,698.28v14.91h39.65c14.94,0,28.08,7.36,35.75,18.45-.09,5.31-.17,10.61-.28,15.92-2.69,137.89-58.56,254.98-157.33,351.36-81.58,79.64-179.36,126.15-291.95,142.31-4.56.66-9.21.74-18.58,1.46,7.56-6.68,11.99-10.7,16.53-14.61,151.32-130.82,231.18-295.55,234.67-495.02-.02-.02,0-.02,0-.02,7.51-11.88,21.12-19.85,36.66-19.85h90.03v-14.91h-86.75c-18.84,0-34.68,12.8-39.44,30.2-.15.59-.31,1.18-.46,1.79,0,0,.02,0,0-.02.04-1.11.04-2.25.07-3.38.09-10,.2-20,.26-30,7.53-11.59,20.96-19.32,36.29-19.32h144.53c15.33,0,28.74,7.73,36.29,19.3-.13,10.18-.28,20.33-.46,30.5-5.11-16.84-20.68-29.06-39.11-29.06h-36.38Z"/>
    <path class="cls-3" d="M1253.63,625.26v14.78h94.66c15.72,0,29.46,8.14,36.86,20.24-.11,11.07-.24,22.16-.39,33.23-4.5-17.75-20.53-30.9-39.61-30.9h-137.98c-19,0-34.94,13.01-39.55,30.64.09-11.18.17-22.38.22-33.56,7.47-11.77,21.01-19.65,36.49-19.65h34.52v-14.78h-31.27c-16.18,0-30.13,9.43-36.73,23.1-.79,1.64-1.46,3.34-2.03,5.09-.37,1.16-.7,2.36-.98,3.56.09-10.98.13-21.97.17-32.95t0-.02c7.51-11.62,20.94-19.37,36.31-19.37h143.96c15.92,0,29.78,8.34,37.14,20.68-.07,11.2-.17,22.4-.26,33.61-3.38-19.15-20.02-33.69-40.13-33.69h-91.41Z"/>
    <path class="cls-3" d="M1385.19,304.84c-7.4-12.14-21.14-20.31-36.9-20.31h-120.03v-14.78h116.78c20.18,0,36.88,14.65,40.16,33.89-.04-12.05-.07-24.09-.09-36.12-7.42-12.05-21.12-20.15-36.82-20.15h-46.88v-14.8h43.63c20,0,36.58,14.39,40.07,33.39-.02-8.32-.02-16.64-.02-24.95,0-9.44-4.64-18.34-12.51-23.56-6.89-4.57-15.26-7.26-24.28-7.26h-143.97c-4.52-.05-12.96.51-21.37,5.48-3.49,2.06-8.85,5.32-11.82,11.82-.91,1.99-1.37,3.78-1.61,5.03-.75,3.24-1.39,6.8-1.83,10.66-.95,8.33-.68,15.73.02,21.81.04-.22.09-.44.13-.66.28-1.22.61-2.4.98-3.58.57-1.75,1.24-3.45,2.03-5.09,6.59-13.67,20.55-23.1,36.73-23.1h79.02v14.8h-82.28c-1.48,0-2.97.07-4.43.22-.96.09-1.92.22-2.86.37-.96.15-1.9.35-2.82.57-.94.2-1.83.44-2.75.72-4.06,1.22-7.84,3.01-11.27,5.26-2.29,1.51-4.41,3.21-6.35,5.09-2.36,2.27-4.41,4.83-6.14,7.6,0,11.59.02,23.17.04,34.76,3.95-18.41,20.24-32.21,39.83-32.21h4.61v14.78h-7.86c-15.55,0-29.13,7.93-36.58,19.78.02,11.46.04,22.95.07,34.44.02-.02.02-.04.02-.07.28-1.22.61-2.4.98-3.58.57-1.75,1.24-3.45,2.03-5.09,6.59-13.67,20.55-23.1,36.73-23.1h137.46c20.42,0,37.3,15.02,40.27,34.61-.04-12.25-.09-24.46-.11-36.68ZM1385.43,377.75c-7.36-12.34-21.22-20.68-37.14-20.68h-79.85v-14.78h76.6c20.72,0,37.78,15.46,40.4,35.46-.04-11.86-.09-23.71-.13-35.57-7.38-12.23-21.18-20.48-37.01-20.48h-143.97c-15.5,0-29.02,7.88-36.49,19.65l.07,32.43c.26-1.11.57-2.21.92-3.3.57-1.75,1.24-3.45,2.03-5.09,6.59-13.67,20.55-23.1,36.73-23.1h46.05v14.78h-49.31c-15.44,0-28.93,7.82-36.42,19.52v.02c.04,10.72.07,21.46.09,32.19.24-1,.52-1.99.83-2.95.57-1.75,1.24-3.45,2.03-5.09,6.59-13.67,20.55-23.1,36.73-23.1h137.46c20.72,0,37.78,15.46,40.4,35.46-7.36-12.34-21.22-20.68-37.14-20.68h-143.97c-15.37,0-28.82,7.75-36.33,19.39v.02c.02,10.63.04,21.29.09,31.95.22-.87.46-1.73.74-2.58.57-1.77,1.24-3.47,2.03-5.11,6.59-13.67,20.55-23.1,36.73-23.1h100.62v14.8h-103.87c-15.31,0-28.71,7.71-36.25,19.26v.02c.02,10.61.02,21.25.04,31.88v.07c.04-.22.09-.41.15-.61.07-.22.11-.44.17-.63.11-.41.24-.81.37-1.22.57-1.75,1.24-3.45,2.03-5.09,6.59-13.67,20.55-23.1,36.73-23.1h137.46c20.72,0,37.78,15.46,40.4,35.46-7.36-12.32-21.22-20.66-37.14-20.66h-143.97c-15.29,0-28.67,7.66-36.2,19.17.02,10.63.02,21.27.02,31.92,4.54-17.56,20.46-30.53,39.44-30.53h4.61v14.8h-7.86c-15.26,0-28.63,7.62-36.16,19.11t0,.02c0,10.63,0,21.27-.02,31.92.2-.76.44-1.55.68-2.29.57-1.75,1.24-3.45,2.03-5.09,6.59-13.67,20.55-23.1,36.73-23.1h137.46c20.72,0,37.78,15.46,40.4,35.46-7.36-12.34-21.22-20.68-37.14-20.68h-143.97c-15.26,0-28.63,7.66-36.18,19.15v.02c0,10.68,0,21.33-.02,32.01.2-.81.44-1.59.7-2.4.57-1.75,1.24-3.45,2.03-5.09,6.59-13.67,20.55-23.1,36.73-23.1h86.43v14.78h-89.68c-15.31,0-28.69,7.69-36.23,19.24,0,10.79-.04,21.57-.09,32.38.24-.96.5-1.9.81-2.84.57-1.75,1.24-3.45,2.03-5.09,6.59-13.67,20.55-23.1,36.73-23.1h137.46c20.7,0,37.75,15.44,40.4,35.42.57-82.5.28-165.01,0-247.56ZM1348.29,569.29h-39.5v-14.78h36.25c20.72,0,37.78,15.46,40.4,35.46-7.36-12.34-21.22-20.68-37.14-20.68ZM1348.29,498.57h-118.83v-14.8h115.58c20.72,0,37.78,15.46,40.4,35.46-7.36-12.34-21.22-20.66-37.14-20.66ZM1348.29,427.82h-25.31v-14.8h22.05c20.72,0,37.78,15.46,40.4,35.48-7.36-12.34-21.22-20.68-37.14-20.68Z"/>
  </g>
  <path class="cls-4" d="M1167.73,728.48c-.15.59-.31,1.18-.46,1.79,0,0,.02,0,0-.02.15-.59.31-1.18.46-1.77Z"/>
  <text class="cls-2" transform="translate(53.67 1588.53)"><tspan x="0" y="0">oweru</tspan></text>
</svg>